<?xml version="1.0" encoding="UTF-8" standalone="no"?>
<svg
   xmlns:dc="http://purl.org/dc/elements/1.1/"
   xmlns:cc="http://creativecommons.org/ns#"
   xmlns:rdf="http://www.w3.org/1999/02/22-rdf-syntax-ns#"
   xmlns:svg="http://www.w3.org/2000/svg"
   xmlns="http://www.w3.org/2000/svg"
   xmlns:sodipodi="http://sodipodi.sourceforge.net/DTD/sodipodi-0.dtd"
   xmlns:inkscape="http://www.inkscape.org/namespaces/inkscape"
   width="210mm"
   height="297mm"
   viewBox="0 0 210 297"
   version="1.1"
   id="svg8"
   inkscape:version="1.0.2-2 (e86c870879, 2021-01-15)"
   sodipodi:docname="FiniteDifference.svg">
  <defs
     id="defs2" />
  <sodipodi:namedview
     id="base"
     pagecolor="#ffffff"
     bordercolor="#666666"
     borderopacity="1.0"
     inkscape:pageopacity="0.0"
     inkscape:pageshadow="2"
     inkscape:zoom="0.35"
     inkscape:cx="400"
     inkscape:cy="560"
     inkscape:document-units="mm"
     inkscape:current-layer="layer1"
     inkscape:document-rotation="0"
     showgrid="false"
     inkscape:window-width="1431"
     inkscape:window-height="1030"
     inkscape:window-x="224"
     inkscape:window-y="0"
     inkscape:window-maximized="0" />
  <metadata
     id="metadata5">
    <rdf:RDF>
      <cc:Work
         rdf:about="">
        <dc:format>image/svg+xml</dc:format>
        <dc:type
           rdf:resource="http://purl.org/dc/dcmitype/StillImage" />
        <dc:title></dc:title>
      </cc:Work>
    </rdf:RDF>
  </metadata>
  <g
     inkscape:label="Layer 1"
     inkscape:groupmode="layer"
     id="layer1">
    <path
       style="fill:#000000;stroke-width:0.264583"
       d="m 29.60903,83.891563 c -0.60488,-0.60488 -0.667255,-0.84161 -0.560608,-2.12764 0.133126,-1.60531 0.689153,-2.54511 2.056328,-3.4756 1.023579,-0.69665 1.660683,-0.75161 2.220706,-0.19159 0.361918,0.36192 0.431992,0.29877 0.676626,-0.60972 0.649428,-2.4118 0.654714,-2.70442 0.04885,-2.70442 -0.309232,0 -0.56224,-0.10339 -0.56224,-0.22975 0,-0.25296 2.157231,-0.61163 2.374133,-0.39473 0.07442,0.0744 -0.372733,2.1206 -0.993668,4.54708 -0.620934,2.42647 -1.126026,4.62013 -1.122426,4.87479 0.01151,0.81412 0.748409,0.49589 1.063662,-0.45933 0.417211,-1.26417 0.932906,-1.55329 0.700833,-0.39292 -0.325016,1.62508 -1.499095,2.33008 -2.392531,1.43665 -0.367339,-0.36734 -0.486031,-0.36734 -1.196385,0 -1.092765,0.56508 -1.526531,0.51393 -2.313278,-0.27282 z m 2.359294,-0.37374 c 0.868806,-0.6834 1.726224,-3.88746 1.268947,-4.74189 -0.689118,-1.28762 -2.087752,-0.23911 -2.766477,2.07395 -0.504024,1.71769 -0.530531,2.44928 -0.104187,2.87562 0.446988,0.44699 0.833081,0.39693 1.601717,-0.20768 z m 4.584873,0.70613 c -0.646269,-0.47256 -0.438082,-1.34926 0.346879,-1.46074 0.547795,-0.0778 0.61117,-0.002 0.497008,0.59531 -0.153442,0.80269 0.308051,0.91528 0.907648,0.22146 0.40817,-0.47231 1.269375,-3.56644 1.269375,-4.56059 0,-1.23056 -1.545439,-0.85337 -2.112478,0.51558 -0.357343,0.86271 -0.797939,1.07282 -0.797939,0.38053 0,-0.61482 1.703373,-2.2225 2.354792,-2.2225 0.305594,0 0.763984,0.21475 1.018646,0.47721 0.445976,0.45965 0.490308,0.45744 1.204281,-0.0599 0.682542,-0.49452 0.797816,-0.50532 1.455209,-0.13633 0.819138,0.45977 0.916431,0.98879 0.258209,1.40399 -0.651761,0.41112 -1.226609,-0.16648 -0.744193,-0.74776 0.286874,-0.34566 0.253818,-0.40809 -0.216086,-0.40809 -0.338828,0 -0.699253,0.28322 -0.925959,0.72761 -0.495782,0.97182 -1.227049,4.26362 -1.04978,4.72558 0.320916,0.8363 1.709678,0.2312 2.20304,-0.95988 0.237406,-0.57314 0.422595,-0.73505 0.617652,-0.53999 0.352478,0.35247 -0.508149,1.56909 -1.508244,2.1321 -0.636489,0.35832 -0.783873,0.35189 -1.517077,-0.0661 -0.728791,-0.41552 -0.870224,-0.4223 -1.378707,-0.0661 -0.697965,0.48887 -1.260356,0.50341 -1.882276,0.0487 z m 76.928753,-0.33239 c -0.60489,-0.60488 -0.66726,-0.84161 -0.56061,-2.12764 0.13313,-1.60531 0.68915,-2.54511 2.05633,-3.4756 1.02358,-0.69665 1.66068,-0.75161 2.2207,-0.19159 0.36192,0.36192 0.43199,0.29877 0.67663,-0.60972 0.64943,-2.4118 0.65471,-2.70442 0.0489,-2.70442 -0.30924,0 -0.56224,-0.10339 -0.56224,-0.22975 0,-0.25296 2.15723,-0.61163 2.37413,-0.39473 0.0744,0.0744 -0.37274,2.1206 -0.99367,4.54708 -0.62093,2.42647 -1.12602,4.62013 -1.12243,4.87479 0.0115,0.81412 0.74842,0.49589 1.06367,-0.45933 0.41721,-1.26417 0.9329,-1.55329 0.70083,-0.39292 -0.32502,1.62508 -1.4991,2.33008 -2.39253,1.43665 -0.36734,-0.36734 -0.48603,-0.36734 -1.19639,0 -1.09276,0.56508 -1.52653,0.51393 -2.31327,-0.27282 z m 2.35929,-0.37374 c 0.86881,-0.6834 1.72622,-3.88746 1.26895,-4.74189 -0.68912,-1.28762 -2.08775,-0.23911 -2.76648,2.07395 -0.50403,1.71769 -0.53053,2.44928 -0.10419,2.87562 0.44699,0.44699 0.83308,0.39693 1.60172,-0.20768 z m 4.57066,0.69574 c -0.54918,-0.40157 -0.40707,-1.14296 0.26878,-1.40231 0.64665,-0.24815 1.07514,0.32222 0.63789,0.84908 -0.31844,0.3837 -0.28524,0.42298 0.28903,0.34194 0.52445,-0.074 0.74134,-0.37045 1.13168,-1.54677 0.72328,-2.17963 0.87875,-3.91973 0.36773,-4.11583 -0.61672,-0.23666 -1.39739,0.28981 -1.77247,1.1953 -0.35734,0.86271 -0.79793,1.07282 -0.79793,0.38053 0,-0.58645 1.69009,-2.2225 2.29592,-2.2225 0.27321,0 0.75841,0.18328 1.07822,0.40728 0.52451,0.36738 0.64416,0.3662 1.22148,-0.0121 0.64327,-0.42148 1.86561,-0.32821 2.17083,0.16564 0.27021,0.43721 -0.18169,1.29124 -0.68325,1.29124 -0.65951,0 -0.91348,-0.46031 -0.51734,-0.93763 0.25358,-0.30554 0.2446,-0.38445 -0.0434,-0.38124 -0.74503,0.008 -1.08975,0.50384 -1.57972,2.27085 -0.6786,2.44722 -0.67055,3.54593 0.026,3.54593 0.52248,0 0.86529,-0.29308 1.85692,-1.5875 0.43356,-0.56596 0.50799,-0.59079 0.51552,-0.17198 0.0114,0.63364 -1.6425,2.28865 -2.28711,2.28865 -0.27322,0 -0.76138,-0.18535 -1.08479,-0.41188 -0.53223,-0.37278 -0.64386,-0.37278 -1.17608,0 -0.72305,0.50644 -1.27713,0.52183 -1.91792,0.0533 z M 50.308515,73.225483 c -0.291481,-0.47163 0.454294,-1.90829 1.187389,-2.28739 1.171614,-0.60587 2.095343,-0.46762 3.766148,0.56366 1.851181,1.14262 3.216198,1.26974 3.946736,0.36757 0.260509,-0.32172 0.473652,-0.75034 0.473652,-0.9525 0,-0.20216 0.119062,-0.36757 0.264583,-0.36757 0.369771,0 0.315407,1.36709 -0.07456,1.87502 -1.000438,1.30303 -2.400755,1.32427 -4.64285,0.0704 -0.96556,-0.53997 -2.066388,-0.9553 -2.499416,-0.94299 -0.904893,0.0257 -1.779008,0.72335 -1.779008,1.41981 0,0.50728 -0.3907,0.66168 -0.642675,0.25397 z m 129.684245,-0.98744 c -0.49792,-0.49791 0.52704,-0.63045 4.87526,-0.63045 3.69742,0 4.74422,0.0743 4.65893,0.33073 -0.0812,0.244 -1.32267,0.34962 -4.73455,0.40277 -2.5435,0.0396 -4.70334,-0.007 -4.79964,-0.10305 z M 28.197024,70.549253 c 0,-0.1705 2.822222,-0.26458 7.9375,-0.26458 5.115277,0 7.9375,0.0941 7.9375,0.26458 0,0.17051 -2.822223,0.26459 -7.9375,0.26459 -5.115278,0 -7.9375,-0.0941 -7.9375,-0.26459 z m 38.099999,0 c 0,-0.17552 18.07986,-0.26458 53.710417,-0.26458 35.63056,0 53.71042,0.0891 53.71042,0.26458 0,0.17552 -18.07986,0.26459 -53.71042,0.26459 -35.630557,0 -53.710417,-0.0891 -53.710417,-0.26459 z m -16.005482,-0.79082 c -0.269912,-0.43673 0.641851,-2.02654 1.346306,-2.34752 1.087885,-0.49567 2.046936,-0.3477 3.42873,0.52902 0.719715,0.45664 1.615969,0.93756 1.991675,1.0687 0.985092,0.34386 2.081379,-0.15355 2.441559,-1.10777 0.384535,-1.01875 0.711796,-1.01176 0.711796,0.0152 0,0.53955 -0.240769,1.02991 -0.727605,1.48188 -0.980691,0.91046 -2.598877,0.76584 -4.417425,-0.39478 -1.532464,-0.97804 -2.805543,-1.08666 -3.58622,-0.30598 -0.291042,0.29104 -0.529167,0.70776 -0.529167,0.92604 0,0.44779 -0.414017,0.53266 -0.659649,0.13522 z m 129.776319,-0.53209 c 0,-0.16659 1.76389,-0.26459 4.7625,-0.26459 2.99861,0 4.7625,0.098 4.7625,0.26459 0,0.16659 -1.76389,0.26458 -4.7625,0.26458 -2.99861,0 -4.7625,-0.098 -4.7625,-0.26458 z M 78.812865,67.043523 c -1.561605,-1.64333 -2.028023,-2.95395 -2.142117,-6.01927 -0.0877,-2.35617 -0.0177,-3.00588 0.460833,-4.27768 0.584853,-1.55436 2.452859,-3.94242 2.810245,-3.59263 0.112096,0.10972 -0.04119,0.4669 -0.340638,0.79375 -2.685166,2.93088 -2.780927,9.67899 -0.185639,13.08159 0.856752,1.12326 0.460084,1.13264 -0.602684,0.0142 z m 44.831355,-0.26458 c 1.09187,-1.63316 1.38718,-2.43923 1.64455,-4.48897 0.39496,-3.14549 -0.43237,-6.77696 -1.89981,-8.33898 -0.30876,-0.32866 -0.4803,-0.67865 -0.38119,-0.77776 0.31721,-0.31721 1.75668,1.30495 2.49873,2.81588 0.65532,1.33432 0.71865,1.7314 0.71865,4.50598 0,3.42119 -0.46684,4.91256 -2.04983,6.54843 -1.16297,1.20182 -1.42441,1.07158 -0.5311,-0.26458 z m 34.18785,0.14574 c -1.5749,-1.79372 -1.96303,-3.03621 -1.96861,-6.30194 -0.005,-2.76678 0.0393,-3.00515 0.86655,-4.6863 0.77892,-1.58305 2.05356,-3.0555 2.37058,-2.73848 0.0652,0.0652 -0.18112,0.51339 -0.54747,0.99589 -1.31333,1.72974 -1.63631,2.9996 -1.63631,6.43353 0,2.76338 0.0804,3.35264 0.61978,4.5452 0.34088,0.7536 0.8469,1.57573 1.12448,1.82694 0.27759,0.25121 0.5047,0.55736 0.5047,0.68032 0,0.47283 -0.50812,0.18512 -1.3337,-0.75516 z m 11.62949,-0.0134 c 1.08093,-1.34782 1.62416,-2.98184 1.80124,-5.41807 0.19069,-2.62349 -0.27651,-4.83325 -1.42518,-6.7408 -0.49022,-0.81409 -0.83607,-1.53542 -0.76854,-1.60295 0.0675,-0.0675 0.54679,0.33724 1.06503,0.89947 2.93539,3.18458 2.93588,9.53754 0.001,13.02545 -1.03499,1.23003 -1.6679,1.07677 -0.67354,-0.1631 z m -131.68834,0.25476 c -0.799059,-0.12707 -1.318402,-1.20564 -0.851449,-1.76829 0.184734,-0.22259 0.492868,-0.40471 0.684743,-0.40471 0.580839,0 0.722384,0.53393 0.273143,1.03034 -0.82137,0.9076 0.412555,1.14959 1.500039,0.29417 0.368886,-0.29016 0.793888,-0.88094 0.944449,-1.31284 0.268401,-0.76994 0.258642,-0.78226 -0.499638,-0.6306 -0.935588,0.18712 -2.028261,-0.44842 -2.243177,-1.30472 -0.082,-0.32673 0.09316,-1.36702 0.38926,-2.31176 0.599917,-1.91413 0.676284,-2.64375 0.276711,-2.64375 -0.239198,0 -1.15994,1.2921 -1.414047,1.98437 -0.05341,0.14552 -0.188976,0.17911 -0.301246,0.0746 -0.322669,-0.30026 0.413736,-1.79367 1.109151,-2.24932 0.500651,-0.32804 0.766688,-0.35241 1.282328,-0.11747 0.777391,0.3542 0.836553,1.09511 0.234439,2.93597 -0.553847,1.69329 -0.42628,3.03446 0.298488,3.13815 0.786911,0.11258 1.422019,-0.73542 1.872743,-2.50051 0.217134,-0.85032 0.510977,-1.99252 0.652984,-2.53822 0.24352,-0.93579 0.809698,-1.30062 1.153966,-0.74358 0.08451,0.13673 -0.219881,1.74016 -0.676416,3.56316 -0.666325,2.66072 -0.993657,3.50042 -1.659387,4.25676 -0.850867,0.96669 -1.949273,1.41961 -3.027084,1.24822 z m 29.635053,-0.37383 c -0.461103,-0.4611 -0.38975,-0.94813 0.183883,-1.25513 0.692152,-0.37043 1.31336,0.31856 0.821534,0.91117 -0.183735,0.22139 -0.212387,0.39688 -0.06479,0.39688 0.582395,0 0.932828,-0.91461 1.541682,-4.02372 0.350295,-1.78878 0.699349,-3.52021 0.775674,-3.84764 0.115744,-0.49653 0.02818,-0.59531 -0.52773,-0.59531 -0.890474,0 -0.855663,-0.47168 0.04264,-0.57774 0.620654,-0.0733 0.748112,-0.25762 1.021479,-1.47737 0.393333,-1.75502 0.995164,-2.44281 2.137537,-2.44281 1.070518,0 1.593467,0.72477 1.054645,1.46165 -0.543361,0.74309 -1.32213,0.31415 -1.096994,-0.60422 0.164113,-0.66945 0.144455,-0.69244 -0.255987,-0.29934 -0.238564,0.23418 -0.541216,0.88903 -0.672557,1.45521 -0.386999,1.66823 -0.326771,1.95545 0.41003,1.95545 0.363802,0 0.661458,0.11907 0.661458,0.26459 0,0.14552 -0.344818,0.26458 -0.766262,0.26458 -0.758532,0 -0.770679,0.0247 -1.203855,2.4474 -0.611671,3.42099 -1.094898,5.00768 -1.734018,5.6937 -0.598892,0.64283 -1.815695,0.78532 -2.328365,0.27265 z m 79.233887,0.14111 c -0.31216,-0.31216 -0.18823,-1.0719 0.2317,-1.42042 0.61937,-0.51403 1.15289,0.0965 0.70753,0.80966 -0.26953,0.43158 -0.25848,0.52257 0.0635,0.52257 0.60369,0 0.84412,-0.67684 1.5787,-4.44423 0.81747,-4.19249 0.81102,-4.02244 0.15264,-4.02244 -0.29104,0 -0.52917,-0.11906 -0.52917,-0.26458 0,-0.14552 0.27871,-0.26459 0.61936,-0.26459 0.53281,0 0.66364,-0.19791 0.93632,-1.41635 0.37857,-1.69164 1.09566,-2.5524 2.1264,-2.5524 1.41981,0 1.77655,1.5459 0.41832,1.81274 -0.39885,0.0784 -0.44734,-0.0358 -0.30899,-0.7276 0.0903,-0.4513 0.0626,-0.82055 -0.0615,-0.82055 -0.4013,0 -0.74638,0.63716 -0.93143,1.71979 -0.0995,0.58208 -0.24211,1.26669 -0.31691,1.52135 -0.10866,0.3699 0.0272,0.46302 0.67556,0.46302 1.06975,0 1.04873,0.47216 -0.0258,0.57855 l -0.83733,0.0829 -0.59353,3.04271 c -0.64805,3.32225 -0.98801,4.38594 -1.62767,5.09275 -0.40843,0.45131 -1.92266,0.64218 -2.27773,0.28711 z m -49.212498,-1.85208 c -0.09701,-0.097 -0.176389,-1.10905 -0.176389,-2.24896 v -2.07257 h -2.264574 c -1.442339,0 -2.205202,-0.0961 -2.101051,-0.26458 0.08994,-0.14552 1.10418,-0.26459 2.253871,-0.26459 h 2.090354 l 0.07685,-2.16151 c 0.05107,-1.43643 0.18779,-2.19825 0.407574,-2.27101 0.247399,-0.0819 0.33073,0.4627 0.33073,2.16152 v 2.271 h 2.248963 c 2.8961,0 2.95075,0.48306 0.0661,0.58462 l -2.182818,0.0769 -0.07685,2.18281 c -0.07115,2.02089 -0.218602,2.46063 -0.672807,2.00642 z m -67.556049,-1.29797 c -0.60488,-0.60488 -0.667255,-0.84161 -0.560608,-2.12764 0.133126,-1.60532 0.689153,-2.54512 2.056328,-3.47561 1.023579,-0.69664 1.660683,-0.7516 2.220706,-0.19158 0.361918,0.36192 0.431993,0.29877 0.676626,-0.60973 0.649429,-2.41179 0.654714,-2.70442 0.04885,-2.70442 -0.309231,0 -0.562239,-0.10338 -0.562239,-0.22974 0,-0.25297 2.157231,-0.61164 2.374133,-0.39474 0.07442,0.0744 -0.372734,2.12061 -0.993668,4.54708 -0.620934,2.42648 -1.126026,4.62014 -1.122427,4.8748 0.01151,0.81411 0.74841,0.49589 1.063662,-0.45934 0.417211,-1.26416 0.932907,-1.55328 0.700833,-0.39291 -0.325016,1.62508 -1.499095,2.33008 -2.392531,1.43664 -0.367338,-0.36734 -0.486031,-0.36734 -1.196385,0 -1.092765,0.56509 -1.52653,0.51394 -2.313278,-0.27281 z m 2.359294,-0.37374 c 0.868807,-0.68341 1.726224,-3.88746 1.268947,-4.74189 -0.689117,-1.28763 -2.087751,-0.23911 -2.766477,2.07395 -0.504024,1.71768 -0.530531,2.44928 -0.104187,2.87562 0.446988,0.44699 0.833081,0.39693 1.601717,-0.20768 z m 49.299457,0.70613 c -0.614191,-0.44911 -0.448467,-1.37158 0.246409,-1.37158 0.374843,0 0.519517,0.17071 0.504534,0.59532 -0.01156,0.32742 0.134527,0.59531 0.32463,0.59531 0.190101,0 0.51295,-0.26789 0.717442,-0.59531 0.505208,-0.80891 1.322982,-4.33151 1.125212,-4.8469 -0.275109,-0.71692 -1.304153,-0.31761 -2.012784,0.78104 -0.444066,0.68847 -0.689882,0.89002 -0.745183,0.611 -0.12537,-0.63254 0.674037,-1.67749 1.565937,-2.04693 0.703974,-0.2916 0.886296,-0.26314 1.574601,0.24575 0.428144,0.31654 0.778444,0.46734 0.778444,0.33512 0,-0.13222 0.346385,-0.38388 0.769744,-0.55924 0.584666,-0.24218 0.906614,-0.24559 1.338975,-0.0142 0.679719,0.36377 0.63973,1.40928 -0.059,1.54246 -0.58633,0.11175 -0.934657,-0.71508 -0.434631,-1.03169 0.278259,-0.1762 0.224049,-0.23483 -0.21993,-0.23788 -0.781833,-0.005 -1.23716,0.78463 -1.789292,3.10449 -0.50087,2.10447 -0.418709,2.71229 0.366625,2.71229 0.477991,0 0.996037,-0.50635 1.797883,-1.75728 0.294894,-0.46005 0.316172,-0.45207 0.33073,0.12398 0.0206,0.81506 -1.346552,2.16246 -2.194148,2.16246 -0.364601,0 -0.848979,-0.18606 -1.076393,-0.41348 -0.374923,-0.37492 -0.468538,-0.37492 -1.003814,0 -0.720891,0.50493 -1.278596,0.52403 -1.905994,0.0653 z m 26.310976,-0.17422 c -0.28734,-0.28734 -0.5981,-0.8239 -0.69058,-1.19236 -0.64298,-2.56183 2.39102,-6.01362 4.22787,-4.81007 0.60808,0.39842 0.61646,0.38871 0.94972,-1.10064 0.18492,-0.82644 0.39331,-1.65145 0.46309,-1.83335 0.0767,-0.20008 -0.0934,-0.33073 -0.43061,-0.33073 -0.30661,0 -0.55747,-0.10348 -0.55747,-0.22996 0,-0.29771 1.91094,-0.61076 2.16675,-0.35495 0.10724,0.10724 -0.33743,2.27004 -0.98815,4.80622 -0.84257,3.28386 -1.1012,4.69186 -0.89848,4.89132 0.33899,0.33353 1.04279,-0.48318 1.04279,-1.21008 0,-0.50567 0.41851,-0.88953 0.61565,-0.56468 0.22981,0.3787 -0.66165,2.16607 -1.15908,2.32395 -0.55509,0.17618 -1.57323,-0.27327 -1.57323,-0.6945 0,-0.15096 -0.31372,-0.0277 -0.69714,0.2739 -0.87732,0.69009 -1.79732,0.69975 -2.47113,0.0259 z m 2.32036,-0.48585 c 0.40955,-0.31515 0.76732,-1.08944 1.09873,-2.37785 0.47206,-1.83519 0.47281,-1.93354 0.0191,-2.49385 -0.99824,-1.23278 -2.5068,0.48172 -2.83078,3.21724 -0.085,0.71816 -0.0832,1.492 0.004,1.71965 0.20899,0.54462 0.9532,0.51623 1.70878,-0.0652 z m 4.70616,0.66003 c -0.61419,-0.44911 -0.44846,-1.37158 0.24641,-1.37158 0.37485,0 0.51952,0.17071 0.50454,0.59532 -0.0116,0.32742 0.13452,0.59531 0.32463,0.59531 0.1901,0 0.51295,-0.26789 0.71744,-0.59531 0.50521,-0.80891 1.32298,-4.33151 1.12521,-4.8469 -0.27511,-0.71692 -1.30415,-0.31761 -2.01278,0.78104 -0.44407,0.68847 -0.68988,0.89002 -0.74519,0.611 -0.12537,-0.63254 0.67404,-1.67749 1.56594,-2.04693 0.70398,-0.2916 0.8863,-0.26314 1.5746,0.24575 0.42815,0.31654 0.77845,0.46734 0.77845,0.33512 0,-0.13222 0.34638,-0.38388 0.76974,-0.55924 0.58467,-0.24218 0.90661,-0.24559 1.33898,-0.0142 0.67971,0.36377 0.63973,1.40928 -0.059,1.54246 -0.58633,0.11175 -0.93466,-0.71508 -0.43463,-1.03169 0.27826,-0.1762 0.22405,-0.23483 -0.21993,-0.23788 -0.78184,-0.005 -1.23716,0.78463 -1.78929,3.10449 -0.50087,2.10447 -0.41871,2.71229 0.36662,2.71229 0.47799,0 0.99604,-0.50635 1.79788,-1.75728 0.2949,-0.46005 0.31618,-0.45207 0.33073,0.12398 0.0206,0.81506 -1.34655,2.16246 -2.19414,2.16246 -0.36461,0 -0.84898,-0.18606 -1.0764,-0.41348 -0.37492,-0.37492 -0.46854,-0.37492 -1.00381,0 -0.72089,0.50493 -1.2786,0.52403 -1.906,0.0653 z m 45.7587,-0.0104 c -0.54917,-0.40157 -0.40707,-1.14296 0.26879,-1.40231 0.64664,-0.24814 1.07514,0.32222 0.63789,0.84908 -0.31844,0.3837 -0.28524,0.42298 0.28903,0.34194 0.52445,-0.074 0.74134,-0.37045 1.13168,-1.54676 0.72328,-2.17964 0.87875,-3.91974 0.36773,-4.11583 -0.61672,-0.23666 -1.3974,0.2898 -1.77247,1.1953 -0.35734,0.8627 -0.79794,1.07281 -0.79794,0.38053 0,-0.58646 1.6901,-2.2225 2.29592,-2.2225 0.27322,0 0.75842,0.18327 1.07823,0.40727 0.52451,0.36739 0.64416,0.3662 1.22148,-0.0121 0.64326,-0.42148 1.86561,-0.32821 2.17083,0.16564 0.27021,0.43721 -0.1817,1.29124 -0.68326,1.29124 -0.6595,0 -0.91347,-0.4603 -0.51733,-0.93763 0.25357,-0.30553 0.2446,-0.38445 -0.0434,-0.38123 -0.74502,0.008 -1.08974,0.50384 -1.57971,2.27084 -0.6786,2.44723 -0.67056,3.54594 0.026,3.54594 0.52249,0 0.8653,-0.29307 1.85692,-1.5875 0.43357,-0.56596 0.508,-0.59079 0.51553,-0.17198 0.0114,0.63364 -1.6425,2.28865 -2.28712,2.28865 -0.27321,0 -0.76137,-0.18535 -1.08479,-0.41188 -0.53222,-0.37278 -0.64385,-0.37278 -1.17608,0 -0.72304,0.50644 -1.27712,0.52183 -1.91792,0.0533 z m -28.45029,-3.61014 c 0,-0.16631 1.71979,-0.26458 4.63021,-0.26458 2.91042,0 4.63021,0.0983 4.63021,0.26458 0,0.16631 -1.71979,0.26459 -4.63021,0.26459 -2.91042,0 -4.63021,-0.0983 -4.63021,-0.26459 z"
       id="path24" />
  </g>
</svg>
